HIERARCHY
ROOT hip
{
	OFFSET 0.000000 0.000000 0.000000 
	CHANNELS 6 Xposition Yposition Zposition Xrotation Zrotation Yrotation
	JOINT abdomen
	{
		OFFSET 0.000000 3.402643 0.000000 
		CHANNELS 3 Xrotation Zrotation Yrotation
		JOINT chest
		{
			OFFSET 0.000000 8.438565 -0.680529 
			CHANNELS 3 Xrotation Zrotation Yrotation
			JOINT neck
			{
				OFFSET 0.000000 10.207942 -0.272212 
				CHANNELS 3 Xrotation Zrotation Yrotation
				JOINT head
				{
					OFFSET 0.000000 3.130431 0.000000 
					CHANNELS 3 Xrotation Zrotation Yrotation
					End Site
					{
						OFFSET 0.000000 3.130435 0.000000 
					}
				}
			}
			JOINT lCollar
			{
				OFFSET 3.470700 6.669187 -0.816635 
				CHANNELS 3 Yrotation Zrotation Xrotation
				JOINT lShldr
				{
					OFFSET 3.198488 0.000000 0.000000 
					CHANNELS 3 Zrotation Yrotation Xrotation
					JOINT lForeArm
					{
						OFFSET 10.139888 0.000000 0.000000 
						CHANNELS 3 Yrotation Zrotation Xrotation
						JOINT lHand
						{
							OFFSET 8.370511 0.000000 0.000000 
							CHANNELS 3 Zrotation Yrotation Xrotation
							End Site
							{
								OFFSET 4.083176 0.000000 0.000000 
							}
						}
					}
				}
			}
			JOINT rCollar
			{
				OFFSET -3.470700 6.669187 -0.816635 
				CHANNELS 3 Yrotation Zrotation Xrotation
				JOINT rShldr
				{
					OFFSET -3.198488 0.000000 0.000000 
					CHANNELS 3 Zrotation Yrotation Xrotation
					JOINT rForeArm
					{
						OFFSET -10.139888 0.000000 0.000000 
						CHANNELS 3 Yrotation Zrotation Xrotation
						JOINT rHand
						{
							OFFSET -8.370511 0.000000 0.000000 
							CHANNELS 3 Zrotation Yrotation Xrotation
							End Site
							{
								OFFSET -4.083176 0.000000 0.000000 
							}
						}
					}
				}
			}
		}
	}
	JOINT lThigh
	{
		OFFSET 5.308129 -1.633274 1.361059 
		CHANNELS 3 Xrotation Zrotation Yrotation
		JOINT lShin
		{
			OFFSET -2.041588 -20.007561 0.000000 
			CHANNELS 3 Xrotation Zrotation Yrotation
			JOINT lFoot
			{
				OFFSET 0.000000 -19.190928 -1.224953 
				CHANNELS 3 Xrotation Yrotation Zrotation
				End Site
				{
					OFFSET 0.000000 -2.449906 4.627600 
				}
			}
		}
	}
	JOINT rThigh
	{
		OFFSET -5.308129 -1.633274 1.361059 
		CHANNELS 3 Xrotation Zrotation Yrotation
		JOINT rShin
		{
			OFFSET 2.041588 -20.007561 0.000000 
			CHANNELS 3 Xrotation Zrotation Yrotation
			JOINT rFoot
			{
				OFFSET 0.000000 -19.190928 -1.224953 
				CHANNELS 3 Xrotation Yrotation Zrotation
				End Site
				{
					OFFSET 0.000000 -2.449906 4.627600 
				}
			}
		}
	}
}
MOTION
Frames: 16
Frame Time: 0.033333
-0.073388 51.510632 -0.065371 5.059360 -6.212080 -4.421513 0.000000 0.000000 0.000000 5.677731 4.446066 7.317515 13.837704 0.273437 -0.039062 -8.308833 -1.523416 0.302627 4.775406 7.289081 23.884039 -70.522591 1.705785 -12.668127 -60.161858 -25.480776 103.874893 -23.771700 3.379213 -58.524689 -18.047325 -5.887895 22.517065 63.195908 3.573755 67.578857 56.639496 -45.916103 79.979553 43.060482 -1.988440 -81.375443 12.475902 5.976371 18.915880 7.539759 0.888009 0.487662 10.496463 -16.404097 5.826602 9.558349 8.904370 3.558488 4.333374 -1.835390 -0.858346 11.260386 1.460428 21.364849 
-0.005109 51.444229 -0.088139 4.700262 -5.475556 -3.915019 0.000000 0.000000 0.000000 6.179100 3.933808 7.185160 13.671681 0.283203 -0.039062 -8.376361 -1.357419 -0.107623 4.044657 7.003751 24.027304 -67.456093 -0.616845 -14.074589 -59.415939 -24.227331 101.847572 -23.486879 6.957880 -60.186398 -18.230341 -5.981203 22.455841 61.601879 6.740587 66.055458 49.010761 -44.909241 66.618538 42.858578 -5.183623 -81.870438 12.721560 4.853869 18.486578 7.193365 1.378190 0.637408 10.677896 -16.609119 5.914156 10.501163 8.052062 3.307922 3.073094 -1.981791 -1.005015 10.785878 1.191834 23.622726 
0.031265 51.360603 -0.142999 4.849049 -5.077363 -3.696559 0.000000 0.000000 0.000000 6.089792 3.788798 7.144864 13.876773 0.263672 -0.039062 -8.138064 -1.083965 -0.341920 4.035720 7.390445 24.002426 -64.919655 -3.053331 -15.141517 -59.157642 -20.658701 98.425819 -23.410650 9.249999 -61.325146 -18.659748 -6.522871 22.218307 60.089237 10.996449 64.448021 38.769970 -43.301201 49.891197 42.527122 -8.671470 -82.359215 12.371602 4.199652 18.274199 7.179704 1.777421 0.733965 10.573349 -16.681162 5.880099 10.643120 7.645617 3.166985 2.407799 -2.135754 -1.078182 9.939857 0.818947 26.010870 
0.047688 51.282471 -0.183815 5.179180 -4.833463 -3.744338 0.000000 0.000000 0.000000 5.630236 3.779027 7.154608 14.550555 0.332031 -0.039062 -7.823116 -1.005820 -0.507906 4.524111 8.381119 23.831341 -61.553165 -6.025295 -16.510586 -58.579464 -17.007622 94.790909 -23.766697 10.659341 -62.120789 -19.232161 -7.265916 21.859810 57.574963 16.490150 62.056046 28.944412 -40.151730 34.953407 41.874001 -12.078317 -82.624756 11.889954 3.799080 18.135292 7.209643 2.089778 0.796252 10.466796 -16.561152 5.809046 10.194530 7.323715 3.104073 2.508267 -2.001503 -1.065769 8.621122 0.635608 27.996431 
0.041877 51.225624 -0.136031 5.089216 -4.646975 -3.988423 0.000000 0.000000 0.000000 5.356224 3.769257 7.164350 15.663762 0.439453 -0.039061 -7.681396 -1.074129 -0.742423 5.175626 9.661123 23.609310 -55.941334 -9.067800 -18.832136 -57.212643 -14.826951 90.354126 -23.699511 12.284500 -62.906044 -19.725672 -8.172510 21.452227 53.028801 22.713573 58.385586 21.211832 -35.397038 23.262190 39.997158 -14.970626 -82.449501 12.270917 3.496331 18.010313 6.861458 2.198049 0.827220 10.504997 -16.239103 5.752642 10.115659 6.952265 2.978740 3.029831 -1.539810 -0.894647 7.368772 0.852233 29.096134 
-0.038587 51.162731 0.051241 4.234786 -4.720516 -4.693979 0.000000 0.000000 0.000000 5.655555 3.953016 7.205317 16.894302 0.224609 -0.058593 -7.584454 -0.341780 -0.576220 6.126155 10.870684 23.277359 -49.082706 -10.652316 -21.662912 -55.914070 -12.022445 83.073814 -21.353832 14.797734 -63.659672 -19.896618 -9.909040 20.766474 47.560909 29.716745 53.965237 13.370038 -29.222116 13.506922 36.679329 -15.392201 -81.949806 14.173162 3.662151 17.945297 5.911629 1.767844 0.840619 10.668343 -15.497575 5.676541 11.121874 6.884130 2.947095 3.350282 -1.178912 -0.814149 7.477419 1.900067 27.874920 
0.004943 51.200741 0.052532 4.861016 -4.021274 -4.415347 0.000000 0.000000 0.000000 4.965793 3.411185 7.102784 17.353210 0.595703 -0.029295 -7.651021 -0.615052 -1.396614 6.748128 12.244241 22.979204 -41.439640 -12.448735 -24.536394 -54.979382 -8.136693 78.890190 -20.585415 17.640499 -64.470016 -21.004276 -10.186543 20.430092 35.734730 34.063145 46.673336 10.475153 -24.834965 8.511627 32.327759 -17.271759 -81.053513 13.192919 2.696409 17.661530 6.131031 2.376346 0.954966 10.784534 -15.963646 4.727882 10.113997 5.906678 2.664976 3.989542 -0.644783 -0.620981 7.116344 1.782759 25.628923 
-0.011722 51.235611 0.196883 4.814243 -3.904331 -4.434154 0.000000 0.000000 0.000000 4.800700 3.275723 7.072389 17.949419 1.171875 0.009963 -7.152101 -1.317586 -1.963495 7.265289 13.599191 22.677401 -32.982399 -12.463148 -27.493750 -53.153294 -4.167944 73.841385 -19.147572 19.342131 -64.544830 -22.104176 -10.695928 19.975845 22.560032 36.653419 39.246006 7.459642 -19.464794 1.542696 28.980526 -18.687841 -80.323860 13.655463 2.452226 17.547503 5.656101 2.458534 1.005251 10.639747 -15.854699 4.537576 10.476645 5.887844 2.678211 3.899185 -0.780254 -0.704323 6.605742 1.892474 24.573160 
-0.040053 51.256546 0.411161 4.645208 -3.854820 -4.590703 0.000000 0.000000 0.000000 4.723363 3.207952 7.062083 18.477995 1.679687 0.049093 -6.818594 -1.853489 -2.647941 7.978808 15.130286 22.267418 -24.446001 -11.194028 -30.105473 -50.271870 -0.270503 67.577019 -17.552818 20.226099 -64.235863 -23.153381 -11.745070 19.281715 9.451287 37.205284 32.878227 4.558843 -13.744013 -6.508314 26.677710 -19.434423 -79.759636 14.236109 2.334809 17.490793 5.467143 2.638017 1.023328 10.340492 -15.889778 3.881138 11.072308 6.034344 2.707706 3.745677 -1.092904 -0.782175 5.882134 2.231049 25.150789 
-0.085601 51.253651 0.651246 4.784007 -3.813820 -4.962265 0.000000 0.000000 0.000000 4.450738 3.140177 7.051789 18.771538 1.962890 0.058894 -6.809536 -1.882383 -2.882511 9.193153 17.044224 21.590437 -16.932468 -9.413296 -32.001057 -46.288799 3.971039 60.552612 -16.055225 20.370033 -63.737774 -23.969931 -13.358370 18.337337 -2.283515 35.847694 28.607893 1.992601 -8.060859 -15.447646 25.056887 -19.716812 -79.261330 14.125520 2.334559 17.515163 6.225433 2.909815 1.041445 9.688296 -16.282375 2.204106 11.171829 6.181632 2.723992 3.984514 -1.374227 -0.790007 4.916620 2.775013 26.893692 
-0.163548 51.235390 0.914292 5.224739 -3.810110 -5.569628 0.000000 0.000000 0.000000 4.026015 3.101410 7.051785 18.801229 2.011717 0.068660 -6.949178 -1.502606 -2.383785 10.912598 19.271774 20.605780 -10.744923 -7.252754 -33.242950 -41.778931 8.248959 53.222427 -14.652120 20.381763 -63.217888 -24.564634 -15.221302 17.308973 -12.185331 33.065418 26.706526 0.057707 -2.431856 -25.625086 23.621546 -19.797091 -78.742401 13.138962 2.608159 17.647303 8.295028 3.251340 0.955356 8.329027 -16.838713 -0.472614 10.727234 6.442545 2.825746 4.727629 -1.648050 -0.806258 3.724273 3.506931 28.759460 
-0.253988 51.240978 1.244692 5.459609 -3.787453 -6.049020 0.000000 0.000000 0.000000 3.825044 2.985234 7.031235 18.908766 2.109374 0.068672 -7.202828 -1.502595 -2.393548 12.509701 21.270569 19.571995 -5.321768 -3.763129 -34.135387 -38.079010 11.230430 45.740719 -13.022594 21.307165 -62.787518 -25.386694 -16.560993 16.395412 -20.890478 29.422867 26.634041 -1.027213 3.152762 -36.921257 22.117468 -19.632832 -78.208412 11.878765 2.979037 17.831314 11.489972 3.601188 0.874432 6.125193 -17.118814 -2.925149 10.466120 6.648982 2.891593 5.732865 -1.872819 -0.779791 2.548156 4.120979 29.759367 
-0.303610 51.259171 1.647712 5.286319 -3.534961 -6.047113 0.000000 0.000000 0.000000 4.011719 2.704556 6.961009 19.055773 2.226561 0.078445 -7.208477 -1.444183 -2.266382 13.539012 22.716560 18.808224 -0.368625 -0.599785 -34.703583 -33.556053 14.057589 39.001450 -10.856610 21.313732 -61.929470 -26.707750 -17.591146 15.407814 -28.146446 25.591461 27.873497 -2.562833 7.306728 -43.011772 21.863714 -19.029238 -77.779137 10.350149 2.978804 17.924490 15.775686 4.305469 0.734881 4.018230 -17.314747 -4.953837 10.617116 6.323951 2.783491 6.840900 -1.796552 -0.703310 1.509940 4.760739 30.437895 
-0.343008 51.241215 2.057385 5.357196 -3.128413 -5.809694 0.000000 0.000000 0.000000 3.937355 2.288201 6.861283 19.290705 2.343747 0.088216 -7.600451 -1.434049 -2.618078 14.365223 24.085270 18.125929 3.773055 2.649631 -35.029610 -29.633888 16.451952 32.856506 -9.613880 20.958969 -61.234558 -27.966408 -18.671303 14.368106 -33.341301 21.502169 30.132637 -3.921104 10.319306 -48.236713 22.026146 -18.722200 -77.349731 7.950409 2.859968 17.961983 20.866650 5.379217 0.666128 2.472281 -18.468231 -8.683415 10.703350 5.791217 2.633603 7.658741 -1.669744 -0.561455 0.448838 4.901178 30.437933 
-0.396507 51.161022 2.487682 5.535069 -2.857305 -5.622349 0.000000 0.000000 0.000000 3.747860 2.026624 6.810997 19.700891 2.363278 0.088219 -8.038749 -1.316670 -2.901195 15.487820 25.603817 17.205194 7.053289 4.854548 -35.158005 -25.444046 18.876654 27.050842 -9.107905 20.671600 -60.770256 -28.982170 -19.855392 13.300026 -37.076096 17.640749 32.580799 -4.966669 12.839125 -54.557285 22.143530 -19.022177 -76.857582 4.856853 3.102104 18.100506 27.058847 6.645038 0.546544 1.922034 -20.203197 -13.305435 10.937967 5.459394 2.541930 8.157291 -1.562687 -0.514602 -0.728417 4.612223 29.496475 
-0.463039 51.035683 2.943894 5.705084 -2.779369 -5.661356 0.000000 0.000000 0.000000 3.557677 1.987837 6.810994 20.227648 2.226561 0.078445 -8.286585 -1.219075 -2.959769 16.845486 27.030857 16.144499 9.660641 6.361658 -35.157784 -21.212635 20.843430 20.694061 -8.317824 20.841345 -60.303520 -29.777542 -21.043865 12.291243 -40.234200 14.250434 34.813370 -5.665535 15.420783 -62.018745 22.226690 -19.722672 -76.377602 1.112350 3.816990 18.372534 34.662006 7.962967 0.405598 2.371926 -22.235003 -17.912094 11.316827 5.341390 2.499742 8.481594 -1.398345 -0.448482 -2.065344 4.116520 28.090626 
